<svg xmlns="http://www.w3.org/2000/svg" id="Layer_1" width="639.603" height="653.162" x="0" y="0" version="1.1" xml:space="preserve"><style id="style6574" type="text/css">.st0,.st3{fill:#c96;stroke:#fff;stroke-width:4;stroke-miterlimit:10}.st3{fill:none}.st4,.st5{fill-rule:evenodd;clip-rule:evenodd}.st4{stroke:#fff;stroke-width:4;stroke-miterlimit:10;fill:none}.st5{fill:#fff}</style><g id="White" transform="translate(-181.03569 -56.358994)"><g id="Color_2_"><g id="g6752"><g id="g6727"><g id="g6725"><path id="path6723" fill="#fff" fill-rule="evenodd" d="M813.006 375.084c-1.189 17.428-8.232 32.031-21.056 43.873.068-23.071.118-46.154.19-69.225 9.231 6.57 15.936 15.242 20.866 25.352z" class="st5" clip-rule="evenodd"/></g></g><path id="path6729" fill="#fff" fill-rule="evenodd" d="M192.985 301.951c1.241-18.25 8.625-33.54 22.046-45.934-.071 24.156-.124 48.328-.194 72.486-9.668-6.884-16.685-15.963-21.852-26.552z" class="st5" clip-rule="evenodd"/><path id="path6731" fill="#fff" fill-rule="evenodd" d="M190.342 462.404c1.502 21.807 10.33 40.045 26.362 54.838-.1-28.834-.201-57.707-.323-86.531-11.516 8.223-19.909 19.051-26.039 31.693z" class="st5" clip-rule="evenodd"/><g id="Cube_9_"><path id="path6733" fill="none" fill-rule="evenodd" stroke="#fff" stroke-miterlimit="10" stroke-width="4" d="M503.047 706.768c-11.002.783-21.126-2.377-30.529-7.762-74.574-42.666-149.121-85.396-223.625-128.199-22.824-13.127-34.42-33.256-34.56-59.891-.452-84.922-.743-169.849-1.115-254.769-.055-12.695 2.681-24.596 9.435-35.401.992.482 2.006.912 2.969 1.448 71.602 40.389 143.215 80.756 214.791 121.192 20.478 11.565 40.855 23.323 61.282 35 .346.458.697.927 1.031 1.385.073 1.8.216 3.603.222 5.406.446 104.873.887 209.75 1.326 314.633.006 1.795-.117 3.594-.169 5.402-.355.503-.704 1.036-1.058 1.556z" class="st4" clip-rule="evenodd"/><path id="path6735" fill="none" fill-rule="evenodd" stroke="#fff" stroke-miterlimit="10" stroke-width="4" d="M503.088 705.822c.061-1.809.191-3.605.191-5.402.002-104.881.002-209.758 0-314.635 0-1.803-.131-3.606-.198-5.406.2-.384.292-.794.269-1.224 93.159-53.048 186.312-106.09 279.459-159.136 6.959 10.718 9.668 22.757 9.69 35.339.118 85.152.217 170.31-.032 255.458-.075 26.26-11.751 46.389-34.253 59.441-73.916 42.928-147.908 85.711-221.9 128.498-10.178 5.885-20.993 9.574-32.94 8.615-.095-.518-.198-1.044-.286-1.548z" class="st4" clip-rule="evenodd"/><path id="path6737" fill="none" fill-rule="evenodd" stroke="#fff" stroke-miterlimit="10" stroke-width="4" d="M782.809 220.019c-93.146 53.046-186.3 106.088-279.459 159.136l-.634-.181-.665.013c-20.376-11.762-40.698-23.604-61.133-35.255-71.407-40.737-142.848-81.408-214.281-122.097-.957-.54-1.971-.973-2.96-1.457 5.675-10.627 14.224-18.276 24.402-24.175 73.476-42.554 146.987-85.037 220.429-127.637 23.471-13.618 46.739-13.284 70.059.232 72.076 41.764 144.149 83.546 216.267 125.247 11.352 6.561 21.503 14.287 27.975 26.174z" class="st4" clip-rule="evenodd"/></g><path id="line6740" fill="#c96" stroke="#fff" stroke-miterlimit="10" stroke-width="4" d="M503.08099 379.905v327.25302" class="st0"/><path id="line6742" fill="none" stroke="#fff" stroke-miterlimit="10" stroke-width="4" d="M502.53101 379.905l279.73101-160.36099" class="st3"/><path id="line6744" fill="none" stroke="#fff" stroke-miterlimit="10" stroke-width="4" d="M503.08099 379.905L224.233 220.23599" class="st3"/><path id="path6746" fill="#fff" fill-rule="evenodd" d="M215.15 193.627c59.851-49.449 113.028-18.271 166.71 13.157 31.101 18.191 60.562 41.055 99.29 40.984 5.274-.017 10.551-1.005 15.841-1.551-5.333 3.302-10.347 7.231-16.002 9.813-41.461 18.892-80.538 9.926-119.672-8.867-49.95-24-99.726-30.208-146.286 8.854-13.422 12.394-20.805 27.684-22.046 45.934-8.75-19.455-10.039-39.481-5.221-60.183 4.391-18.818 14.672-34.14 27.386-48.141z" class="st5" clip-rule="evenodd"/><path id="path6748" fill="#fff" fill-rule="evenodd" d="M217.099 591.713c71.524 58.953 134.977 21.689 199.043-15.887 37.115-21.771 72.292-49.094 118.485-49.057 6.304.018 12.602 1.191 18.922 1.834-6.385-3.926-12.376-8.602-19.117-11.67-49.519-22.525-96.157-11.789-142.858 10.711-59.615 28.689-119.028 36.156-174.675-10.402-16.033-14.793-24.859-33.031-26.359-54.838-10.427 23.236-11.945 47.152-6.165 71.85 5.266 22.461 17.563 40.75 32.724 57.459z" class="st5" clip-rule="evenodd"/><path id="path6750" fill="#fff" fill-rule="evenodd" d="M791.839 478.539c-57.155 47.221-107.941 17.453-159.22-12.568-29.692-17.369-57.837-39.205-94.811-39.137-5.043.012-10.084.961-15.124 1.477 5.079-3.146 9.874-6.902 15.277-9.367 39.591-18.042 76.906-9.48 114.283 8.465 47.709 22.918 95.238 28.852 139.705-8.451 12.823-11.842 19.866-26.445 21.056-43.873 8.35 18.586 9.592 37.707 4.983 57.475-4.187 17.969-14.009 32.602-26.149 45.979z" class="st5" clip-rule="evenodd"/></g></g></g></svg>